<mxfile host="app.diagrams.net" agent="Mozilla/5.0 (Macintosh; Intel Mac OS X 10_15_7) AppleWebKit/537.36 (KHTML, like Gecko) Chrome/131.0.0.0 Safari/537.36" version="25.0.0">
  <diagram name="第 1 页" id="jp_eVqbvx0nbf2SYeyhu">
    <mxGraphModel dx="2021" dy="1750" grid="1" gridSize="10" guides="1" tooltips="1" connect="1" arrows="1" fold="1" page="1" pageScale="1" pageWidth="827" pageHeight="1169" math="0" shadow="0">
      <root>
        <mxCell id="0" />
        <mxCell id="1" parent="0" />
        <mxCell id="NqAp3Kp9PPkYZQKbkeNz-21" value="" style="group" vertex="1" connectable="0" parent="1">
          <mxGeometry x="-430" y="-250" width="700" height="520" as="geometry" />
        </mxCell>
        <mxCell id="NqAp3Kp9PPkYZQKbkeNz-10" value="" style="rounded=0;whiteSpace=wrap;html=1;" vertex="1" parent="NqAp3Kp9PPkYZQKbkeNz-21">
          <mxGeometry width="670" height="290" as="geometry" />
        </mxCell>
        <mxCell id="NqAp3Kp9PPkYZQKbkeNz-4" value="UI" style="rounded=0;whiteSpace=wrap;html=1;" vertex="1" parent="NqAp3Kp9PPkYZQKbkeNz-21">
          <mxGeometry x="280" y="20" width="120" height="60" as="geometry" />
        </mxCell>
        <mxCell id="NqAp3Kp9PPkYZQKbkeNz-6" value="main" style="rounded=0;whiteSpace=wrap;html=1;" vertex="1" parent="NqAp3Kp9PPkYZQKbkeNz-21">
          <mxGeometry x="210" y="150" width="120" height="60" as="geometry" />
        </mxCell>
        <mxCell id="NqAp3Kp9PPkYZQKbkeNz-7" value="local file" style="rounded=0;whiteSpace=wrap;html=1;" vertex="1" parent="NqAp3Kp9PPkYZQKbkeNz-21">
          <mxGeometry x="60" y="150" width="120" height="60" as="geometry" />
        </mxCell>
        <mxCell id="NqAp3Kp9PPkYZQKbkeNz-8" value="network" style="rounded=0;whiteSpace=wrap;html=1;" vertex="1" parent="NqAp3Kp9PPkYZQKbkeNz-21">
          <mxGeometry x="350" y="150" width="120" height="60" as="geometry" />
        </mxCell>
        <mxCell id="NqAp3Kp9PPkYZQKbkeNz-9" value="child_process" style="rounded=0;whiteSpace=wrap;html=1;" vertex="1" parent="NqAp3Kp9PPkYZQKbkeNz-21">
          <mxGeometry x="510" y="150" width="120" height="60" as="geometry" />
        </mxCell>
        <mxCell id="NqAp3Kp9PPkYZQKbkeNz-11" value="现在的" style="text;html=1;align=center;verticalAlign=middle;whiteSpace=wrap;rounded=0;" vertex="1" parent="NqAp3Kp9PPkYZQKbkeNz-21">
          <mxGeometry x="50" y="10" width="60" height="30" as="geometry" />
        </mxCell>
        <mxCell id="NqAp3Kp9PPkYZQKbkeNz-14" value="&lt;h1 style=&quot;margin-top: 0px;&quot;&gt;优点&lt;/h1&gt;&lt;p&gt;1. 简单，一把梭.&lt;/p&gt;" style="text;html=1;whiteSpace=wrap;overflow=hidden;rounded=0;" vertex="1" parent="NqAp3Kp9PPkYZQKbkeNz-21">
          <mxGeometry y="310" width="700" height="80" as="geometry" />
        </mxCell>
        <mxCell id="NqAp3Kp9PPkYZQKbkeNz-20" value="&lt;h1 style=&quot;margin-top: 0px;&quot;&gt;缺点&lt;/h1&gt;&lt;p&gt;1. 主进程渲染进程，无法独立开发 UI 层， main 层改动本来就少。&lt;/p&gt;&lt;p&gt;2. 如果没有环境 无法运行 child_process 依赖的功能。&lt;/p&gt;" style="text;html=1;whiteSpace=wrap;overflow=hidden;rounded=0;" vertex="1" parent="NqAp3Kp9PPkYZQKbkeNz-21">
          <mxGeometry y="410" width="700" height="110" as="geometry" />
        </mxCell>
        <mxCell id="NqAp3Kp9PPkYZQKbkeNz-23" value="" style="group" vertex="1" connectable="0" parent="1">
          <mxGeometry x="-440" y="350" width="730" height="620" as="geometry" />
        </mxCell>
        <mxCell id="NqAp3Kp9PPkYZQKbkeNz-12" value="&lt;span style=&quot;color: rgba(0, 0, 0, 0); font-family: monospace; font-size: 0px; text-align: start; text-wrap-mode: nowrap;&quot;&gt;%3CmxGraphModel%3E%3Croot%3E%3CmxCell%20id%3D%220%22%2F%3E%3CmxCell%20id%3D%221%22%20parent%3D%220%22%2F%3E%3CmxCell%20id%3D%222%22%20value%3D%22main%22%20style%3D%22rounded%3D0%3BwhiteSpace%3Dwrap%3Bhtml%3D1%3B%22%20vertex%3D%221%22%20parent%3D%221%22%3E%3CmxGeometry%20x%3D%2220%22%20y%3D%22160%22%20width%3D%22120%22%20height%3D%2260%22%20as%3D%22geometry%22%2F%3E%3C%2FmxCell%3E%3CmxCell%20id%3D%223%22%20value%3D%22local%20file%22%20style%3D%22rounded%3D0%3BwhiteSpace%3Dwrap%3Bhtml%3D1%3B%22%20vertex%3D%221%22%20parent%3D%221%22%3E%3CmxGeometry%20x%3D%22-130%22%20y%3D%22160%22%20width%3D%22120%22%20height%3D%2260%22%20as%3D%22geometry%22%2F%3E%3C%2FmxCell%3E%3CmxCell%20id%3D%224%22%20value%3D%22network%22%20style%3D%22rounded%3D0%3BwhiteSpace%3Dwrap%3Bhtml%3D1%3B%22%20vertex%3D%221%22%20parent%3D%221%22%3E%3CmxGeometry%20x%3D%22160%22%20y%3D%22160%22%20width%3D%22120%22%20height%3D%2260%22%20as%3D%22geometry%22%2F%3E%3C%2FmxCell%3E%3CmxCell%20id%3D%225%22%20value%3D%22child_process%22%20style%3D%22rounded%3D0%3BwhiteSpace%3Dwrap%3Bhtml%3D1%3B%22%20vertex%3D%221%22%20parent%3D%221%22%3E%3CmxGeometry%20x%3D%22320%22%20y%3D%22160%22%20width%3D%22120%22%20height%3D%2260%22%20as%3D%22geometry%22%2F%3E%3C%2FmxCell%3E%3C%2Froot%3E%3C%2FmxGraphModel%3E&lt;/span&gt;" style="rounded=0;whiteSpace=wrap;html=1;movable=1;resizable=1;rotatable=1;deletable=1;editable=1;locked=0;connectable=1;" vertex="1" parent="NqAp3Kp9PPkYZQKbkeNz-23">
          <mxGeometry width="730" height="352.92307692307696" as="geometry" />
        </mxCell>
        <mxCell id="NqAp3Kp9PPkYZQKbkeNz-1" value="UI" style="rounded=0;whiteSpace=wrap;html=1;movable=1;resizable=1;rotatable=1;deletable=1;editable=1;locked=0;connectable=1;" vertex="1" parent="NqAp3Kp9PPkYZQKbkeNz-23">
          <mxGeometry x="305" y="28.615384615384617" width="120" height="57.23076923076923" as="geometry" />
        </mxCell>
        <mxCell id="NqAp3Kp9PPkYZQKbkeNz-2" value="preload" style="rounded=0;whiteSpace=wrap;html=1;movable=1;resizable=1;rotatable=1;deletable=1;editable=1;locked=0;connectable=1;" vertex="1" parent="NqAp3Kp9PPkYZQKbkeNz-23">
          <mxGeometry x="305" y="114.46153846153847" width="120" height="57.23076923076923" as="geometry" />
        </mxCell>
        <mxCell id="NqAp3Kp9PPkYZQKbkeNz-13" value="改造后的" style="text;html=1;align=center;verticalAlign=middle;whiteSpace=wrap;rounded=0;movable=1;resizable=1;rotatable=1;deletable=1;editable=1;locked=0;connectable=1;" vertex="1" parent="NqAp3Kp9PPkYZQKbkeNz-23">
          <mxGeometry x="25" y="14.307692307692308" width="60" height="28.615384615384617" as="geometry" />
        </mxCell>
        <mxCell id="NqAp3Kp9PPkYZQKbkeNz-15" value="&lt;h1 style=&quot;margin-top: 0px;&quot;&gt;优点&lt;/h1&gt;&lt;p&gt;1. UI层，无需依赖环境，可独立开发，大大提高开发体验&lt;/p&gt;&lt;p&gt;2. UI层独立，可以大大增加产品的可扩展性（SDK、 浏览器模式、灵动岛、浏览器插件通信方式 等）。&lt;/p&gt;&lt;p&gt;&lt;br&gt;&lt;/p&gt;" style="text;html=1;whiteSpace=wrap;overflow=hidden;rounded=0;" vertex="1" parent="NqAp3Kp9PPkYZQKbkeNz-23">
          <mxGeometry y="372" width="700" height="143.0769230769231" as="geometry" />
        </mxCell>
        <mxCell id="NqAp3Kp9PPkYZQKbkeNz-16" value="main" style="rounded=0;whiteSpace=wrap;html=1;movable=1;resizable=1;rotatable=1;deletable=1;editable=1;locked=0;connectable=1;" vertex="1" parent="NqAp3Kp9PPkYZQKbkeNz-23">
          <mxGeometry x="210" y="228.92307692307693" width="120" height="57.23076923076923" as="geometry" />
        </mxCell>
        <mxCell id="NqAp3Kp9PPkYZQKbkeNz-17" value="local file" style="rounded=0;whiteSpace=wrap;html=1;movable=1;resizable=1;rotatable=1;deletable=1;editable=1;locked=0;connectable=1;" vertex="1" parent="NqAp3Kp9PPkYZQKbkeNz-23">
          <mxGeometry x="60" y="228.92307692307693" width="120" height="57.23076923076923" as="geometry" />
        </mxCell>
        <mxCell id="NqAp3Kp9PPkYZQKbkeNz-18" value="network" style="rounded=0;whiteSpace=wrap;html=1;movable=1;resizable=1;rotatable=1;deletable=1;editable=1;locked=0;connectable=1;" vertex="1" parent="NqAp3Kp9PPkYZQKbkeNz-23">
          <mxGeometry x="350" y="228.92307692307693" width="120" height="57.23076923076923" as="geometry" />
        </mxCell>
        <mxCell id="NqAp3Kp9PPkYZQKbkeNz-19" value="child_process" style="rounded=0;whiteSpace=wrap;html=1;movable=1;resizable=1;rotatable=1;deletable=1;editable=1;locked=0;connectable=1;" vertex="1" parent="NqAp3Kp9PPkYZQKbkeNz-23">
          <mxGeometry x="510" y="228.92307692307693" width="120" height="57.23076923076923" as="geometry" />
        </mxCell>
        <mxCell id="NqAp3Kp9PPkYZQKbkeNz-22" value="&lt;h1 style=&quot;margin-top: 0px;&quot;&gt;问题&lt;/h1&gt;&lt;p&gt;1. 如果没有环境 无法运行 main、 child_process、local file&amp;nbsp; 的功能。如果完全独立运行还需要额外的重构与开发成本&lt;/p&gt;" style="text;html=1;whiteSpace=wrap;overflow=hidden;rounded=0;" vertex="1" parent="NqAp3Kp9PPkYZQKbkeNz-23">
          <mxGeometry y="505.53846153846155" width="700" height="114.46153846153847" as="geometry" />
        </mxCell>
      </root>
    </mxGraphModel>
  </diagram>
</mxfile>
